<svg width="68" height="59" viewBox="0 0 68 59" fill="none" xmlns="http://www.w3.org/2000/svg">
<ellipse cx="10.9751" cy="46.5954" rx="10.9751" ry="7.08811" fill="#5A734D"/>
<ellipse cx="41.4049" cy="45.9008" rx="10.9751" ry="7.08811" transform="rotate(17.4424 41.4049 45.9008)" fill="#5A734D"/>
<ellipse cx="21.9502" cy="37.4494" rx="10.9751" ry="12.1184" fill="#5A734D"/>
<ellipse cx="27.4378" cy="46.5954" rx="10.9751" ry="12.1184" fill="#5A734D"/>
<ellipse cx="32.9253" cy="31.9619" rx="10.9751" ry="6.63081" fill="#5A734D"/>
<ellipse cx="24.6522" cy="24.545" rx="10.9751" ry="11.1499" transform="rotate(38.0575 24.6522 24.545)" fill="#5A734D"/>
<ellipse cx="38.0488" cy="33.7086" rx="8.04882" ry="6.35531" fill="#576450"/>
<ellipse cx="8.22577" cy="6.2601" rx="8.22577" ry="6.2601" transform="matrix(0.999188 0.0402885 0.0748395 0.997196 50.6248 23.7327)" fill="#576450"/>
<ellipse cx="46.0976" cy="25.5081" rx="8.04882" ry="10.8655" fill="#576450"/>
<ellipse cx="50.0754" cy="32.5126" rx="8.26636" ry="10.0377" fill="#576450"/>
<ellipse cx="54.1465" cy="20.5879" rx="8.04882" ry="5.94529" fill="#576450"/>
<ellipse cx="39.2297" cy="23.6965" rx="8.04882" ry="5.94529" fill="#576450"/>
<ellipse cx="8.77288" cy="9.3473" rx="8.77288" ry="9.3473" transform="matrix(0.722406 0.691469 -0.539268 0.842135 46.7822 0)" fill="#576450"/>
</svg>
