<svg width="32" height="32" viewBox="0 0 32 32" fill="none" xmlns="http://www.w3.org/2000/svg">
<g clip-path="url(#clip0_406_213)">
<path d="M17.7747 6.16868C17.7747 5.97718 17.8495 5.79352 17.9826 5.6581C18.1156 5.52269 18.2961 5.44662 18.4844 5.44662H26.2904C26.4786 5.44662 26.6591 5.52269 26.7922 5.6581C26.9252 5.79352 27 5.97718 27 6.16868C27 6.36018 26.9252 6.54384 26.7922 6.67926C26.6591 6.81467 26.4786 6.89075 26.2904 6.89075H18.4844C18.2961 6.89075 18.1156 6.81467 17.9826 6.67926C17.8495 6.54384 17.7747 6.36018 17.7747 6.16868ZM26.2904 9.779H18.4844C18.2961 9.779 18.1156 9.85508 17.9826 9.99049C17.8495 10.1259 17.7747 10.3096 17.7747 10.5011C17.7747 10.6926 17.8495 10.8762 17.9826 11.0116C18.1156 11.1471 18.2961 11.2231 18.4844 11.2231H26.2904C26.4786 11.2231 26.6591 11.1471 26.7922 11.0116C26.9252 10.8762 27 10.6926 27 10.5011C27 10.3096 26.9252 10.1259 26.7922 9.99049C26.6591 9.85508 26.4786 9.779 26.2904 9.779ZM26.2904 14.1114H20.6133C20.4251 14.1114 20.2446 14.1875 20.1115 14.3229C19.9784 14.4583 19.9036 14.6419 19.9036 14.8335C19.9036 15.025 19.9784 15.2086 20.1115 15.344C20.2446 15.4794 20.4251 15.5555 20.6133 15.5555H26.2904C26.4786 15.5555 26.6591 15.4794 26.7922 15.344C26.9252 15.2086 27 15.025 27 14.8335C27 14.6419 26.9252 14.4583 26.7922 14.3229C26.6591 14.1875 26.4786 14.1114 26.2904 14.1114ZM17.7525 16.0971C17.7757 16.1889 17.7809 16.2845 17.7678 16.3784C17.7547 16.4723 17.7235 16.5627 17.676 16.6443C17.6286 16.726 17.5658 16.7973 17.4913 16.8542C17.4167 16.9112 17.3319 16.9526 17.2416 16.9762C17.1838 16.992 17.1241 16.9999 17.0642 16.9996C16.9068 16.9997 16.7539 16.9466 16.6294 16.8485C16.505 16.7505 16.4161 16.6132 16.3767 16.4581C15.8303 14.2973 13.6854 12.6673 11.3871 12.6673C9.08875 12.6673 6.94387 14.2964 6.39745 16.4581C6.3504 16.6436 6.23284 16.8025 6.07065 16.8998C5.90845 16.9972 5.7149 17.025 5.53258 16.9771C5.35025 16.9292 5.19408 16.8096 5.09843 16.6446C5.00278 16.4795 4.97547 16.2826 5.02252 16.0971C5.51838 14.1376 6.95984 12.5508 8.78893 11.7647C8.08464 11.2127 7.56781 10.4503 7.31091 9.58433C7.05402 8.71838 7.06995 7.79232 7.35647 6.93604C7.643 6.07976 8.18574 5.33621 8.90858 4.80967C9.63142 4.28313 10.4981 4 11.3871 4C12.2761 4 13.1428 4.28313 13.8656 4.80967C14.5884 5.33621 15.1312 6.07976 15.4177 6.93604C15.7042 7.79232 15.7202 8.71838 15.4633 9.58433C15.2064 10.4503 14.6895 11.2127 13.9852 11.7647C15.8152 12.5508 17.2567 14.1376 17.7525 16.0971ZM11.388 11.2231C11.9494 11.2231 12.4982 11.0537 12.965 10.7364C13.4318 10.419 13.7956 9.96792 14.0105 9.44016C14.2253 8.9124 14.2815 8.33167 14.172 7.7714C14.0625 7.21114 13.7921 6.6965 13.3951 6.29257C12.9982 5.88864 12.4924 5.61356 11.9417 5.50211C11.3911 5.39067 10.8204 5.44787 10.3017 5.66647C9.78303 5.88508 9.33971 6.25527 9.02781 6.73024C8.7159 7.20522 8.54942 7.76363 8.54942 8.33487C8.54942 9.10089 8.84848 9.83553 9.38082 10.3772C9.91315 10.9188 10.6351 11.2231 11.388 11.2231Z" fill="#757575"/>
<path d="M6.211 22.568H7.146C7.586 22.568 7.93433 22.4727 8.191 22.282C8.44767 22.084 8.576 21.798 8.576 21.424C8.576 21.05 8.44767 20.7677 8.191 20.577C7.93433 20.379 7.553 20.28 7.047 20.28C6.90033 20.28 6.75367 20.2873 6.607 20.302C6.46767 20.3167 6.33567 20.335 6.211 20.357V22.568ZM7.245 23.646H4.858V19.873C4.858 19.741 4.89467 19.6383 4.968 19.565C5.04133 19.4917 5.144 19.433 5.276 19.389C5.50333 19.3157 5.77467 19.2607 6.09 19.224C6.41267 19.1873 6.739 19.169 7.069 19.169C8.02967 19.169 8.752 19.3707 9.236 19.774C9.72 20.17 9.962 20.7163 9.962 21.413C9.962 21.853 9.84833 22.2417 9.621 22.579C9.401 22.909 9.08933 23.1693 8.686 23.36C8.28267 23.5507 7.80233 23.646 7.245 23.646ZM7.069 23.294L8.224 22.953C8.41467 23.1877 8.60533 23.4297 8.796 23.679C8.994 23.9283 9.181 24.1703 9.357 24.405C9.54033 24.6397 9.70533 24.8523 9.852 25.043C9.99867 25.2337 10.1123 25.3877 10.193 25.505C10.1417 25.6883 10.0427 25.8313 9.896 25.934C9.75667 26.0367 9.60267 26.088 9.434 26.088C9.22133 26.088 9.05633 26.0403 8.939 25.945C8.82167 25.8497 8.70433 25.7177 8.587 25.549L7.069 23.294ZM4.858 23.162H6.233V25.978C6.167 26 6.07533 26.0183 5.958 26.033C5.84067 26.055 5.71967 26.066 5.595 26.066C5.331 26.066 5.14033 26.0183 5.023 25.923C4.913 25.8277 4.858 25.6627 4.858 25.428V23.162ZM13.0382 25.043C13.4709 25.043 13.7899 24.9587 13.9952 24.79C14.2006 24.614 14.3032 24.394 14.3032 24.13C14.3032 23.9027 14.2226 23.7157 14.0612 23.569C13.8999 23.4223 13.6579 23.3013 13.3352 23.206L12.6092 22.986C12.2499 22.8613 11.9309 22.722 11.6522 22.568C11.3809 22.414 11.1682 22.216 11.0142 21.974C10.8676 21.732 10.7942 21.4313 10.7942 21.072C10.7942 20.478 11.0142 20.0087 11.4542 19.664C11.9016 19.3193 12.5102 19.147 13.2802 19.147C13.6836 19.147 14.0466 19.191 14.3692 19.279C14.6919 19.3597 14.9449 19.4733 15.1282 19.62C15.3116 19.7667 15.4032 19.939 15.4032 20.137C15.4032 20.269 15.3666 20.39 15.2932 20.5C15.2272 20.6027 15.1466 20.687 15.0512 20.753C14.8752 20.6283 14.6406 20.5183 14.3472 20.423C14.0539 20.3277 13.7349 20.28 13.3902 20.28C13.0089 20.28 12.7156 20.3533 12.5102 20.5C12.3049 20.6393 12.2022 20.83 12.2022 21.072C12.2022 21.2627 12.2719 21.4167 12.4112 21.534C12.5579 21.6513 12.7816 21.754 13.0822 21.842L13.7092 22.04C14.3472 22.2307 14.8386 22.491 15.1832 22.821C15.5352 23.1437 15.7112 23.5837 15.7112 24.141C15.7112 24.7423 15.4839 25.23 15.0292 25.604C14.5746 25.978 13.9219 26.165 13.0712 26.165C12.6239 26.165 12.2279 26.1173 11.8832 26.022C11.5386 25.9267 11.2672 25.7947 11.0692 25.626C10.8712 25.4573 10.7722 25.2703 10.7722 25.065C10.7722 24.8963 10.8199 24.757 10.9152 24.647C11.0179 24.5297 11.1279 24.4417 11.2452 24.383C11.4359 24.5443 11.6816 24.6947 11.9822 24.834C12.2829 24.9733 12.6349 25.043 13.0382 25.043ZM19.896 25.846C19.83 25.9047 19.72 25.956 19.566 26C19.412 26.0513 19.2434 26.077 19.06 26.077C18.84 26.077 18.6494 26.0477 18.488 25.989C18.3267 25.923 18.2167 25.8313 18.158 25.714C18.048 25.494 17.9197 25.2043 17.773 24.845C17.6264 24.4857 17.465 24.0823 17.289 23.635C17.1204 23.1803 16.9517 22.7147 16.783 22.238C16.6144 21.7613 16.4567 21.2957 16.31 20.841C16.1707 20.379 16.0497 19.961 15.947 19.587C16.013 19.5063 16.1157 19.433 16.255 19.367C16.3944 19.301 16.541 19.268 16.695 19.268C16.9004 19.268 17.058 19.3157 17.168 19.411C17.2854 19.499 17.3734 19.6457 17.432 19.851C17.7034 20.7017 17.9674 21.523 18.224 22.315C18.4807 23.0997 18.7557 23.9027 19.049 24.724H19.104C19.28 24.2107 19.4597 23.6607 19.643 23.074C19.8337 22.48 20.017 21.8713 20.193 21.248C20.3764 20.6247 20.5414 20.016 20.688 19.422C20.776 19.3707 20.8714 19.334 20.974 19.312C21.084 19.2827 21.2014 19.268 21.326 19.268C21.524 19.268 21.6854 19.3157 21.81 19.411C21.942 19.499 22.008 19.642 22.008 19.84C22.008 19.972 21.9677 20.192 21.887 20.5C21.8137 20.8007 21.711 21.1527 21.579 21.556C21.4544 21.9593 21.3114 22.381 21.15 22.821C20.996 23.2537 20.8384 23.6753 20.677 24.086C20.5157 24.4893 20.3654 24.8487 20.226 25.164C20.094 25.472 19.984 25.6993 19.896 25.846ZM24.2349 22.667H25.0489C25.5036 22.667 25.8593 22.568 26.1159 22.37C26.3799 22.1647 26.5119 21.8603 26.5119 21.457C26.5119 21.061 26.3873 20.7677 26.1379 20.577C25.8959 20.379 25.5403 20.28 25.0709 20.28C24.9096 20.28 24.7593 20.2873 24.6199 20.302C24.4806 20.3093 24.3523 20.3277 24.2349 20.357V22.667ZM25.1369 23.756H22.8709V19.873C22.8709 19.741 22.9076 19.6383 22.9809 19.565C23.0543 19.4917 23.1569 19.433 23.2889 19.389C23.5163 19.3157 23.7913 19.2607 24.1139 19.224C24.4366 19.1873 24.7373 19.169 25.0159 19.169C25.9839 19.169 26.7063 19.3743 27.1829 19.785C27.6596 20.1957 27.8979 20.753 27.8979 21.457C27.8979 21.919 27.7916 22.326 27.5789 22.678C27.3663 23.0227 27.0546 23.2903 26.6439 23.481C26.2406 23.6643 25.7383 23.756 25.1369 23.756ZM22.8709 23.14H24.2459V25.978C24.1799 26 24.0883 26.0183 23.9709 26.033C23.8536 26.055 23.7326 26.066 23.6079 26.066C23.3439 26.066 23.1533 26.0183 23.0359 25.923C22.9259 25.8277 22.8709 25.6627 22.8709 25.428V23.14Z" fill="#757575"/>
</g>
<defs>
<clipPath id="clip0_406_213">
<rect width="32" height="32" fill="white"/>
</clipPath>
</defs>
</svg>
