<svg width="172" height="103" viewBox="0 0 172 103" fill="none" xmlns="http://www.w3.org/2000/svg">
<ellipse cx="52.8158" cy="84.5448" rx="6.81578" ry="5.38171" fill="#576450"/>
<ellipse cx="6.96562" cy="5.30108" rx="6.96562" ry="5.30108" transform="matrix(0.999188 0.0402885 0.0748395 0.997196 63.4651 76.0969)" fill="#576450"/>
<ellipse cx="59.6317" cy="77.6004" rx="6.81578" ry="9.20099" fill="#576450"/>
<ellipse cx="63" cy="83.5317" rx="7" ry="8.5" fill="#576450"/>
<ellipse cx="66.4474" cy="73.4339" rx="6.81578" ry="5.0345" fill="#576450"/>
<ellipse cx="53.8158" cy="76.0662" rx="6.81578" ry="5.0345" fill="#576450"/>
<ellipse cx="7.42892" cy="7.91534" rx="7.42892" ry="7.91534" transform="matrix(0.722406 0.691469 -0.539268 0.842135 60.2112 56)" fill="#576450"/>
<ellipse cx="10.9751" cy="90.5954" rx="10.9751" ry="7.08811" fill="#648353"/>
<ellipse cx="41.4049" cy="89.9008" rx="10.9751" ry="7.08811" transform="rotate(17.4424 41.4049 89.9008)" fill="#648353"/>
<ellipse cx="21.9502" cy="81.4494" rx="10.9751" ry="12.1184" fill="#648353"/>
<ellipse cx="27.4378" cy="90.5954" rx="10.9751" ry="12.1184" fill="#648353"/>
<ellipse cx="32.9253" cy="75.9619" rx="10.9751" ry="6.63081" fill="#648353"/>
<ellipse cx="24.6522" cy="68.545" rx="10.9751" ry="11.1499" transform="rotate(38.0575 24.6522 68.545)" fill="#648353"/>
<ellipse cx="103.049" cy="59.7086" rx="8.04882" ry="6.35531" fill="#648353"/>
<ellipse cx="8.22577" cy="6.2601" rx="8.22577" ry="6.2601" transform="matrix(0.999188 0.0402885 0.0748395 0.997196 115.625 49.7327)" fill="#648353"/>
<ellipse cx="111.098" cy="51.5081" rx="8.04882" ry="10.8655" fill="#648353"/>
<ellipse cx="115.075" cy="58.5126" rx="8.26636" ry="10.0377" fill="#648353"/>
<ellipse cx="119.146" cy="46.5879" rx="8.04882" ry="5.94529" fill="#648353"/>
<ellipse cx="104.23" cy="49.6965" rx="8.04882" ry="5.94529" fill="#648353"/>
<ellipse cx="8.77288" cy="9.3473" rx="8.77288" ry="9.3473" transform="matrix(0.722406 0.691469 -0.539268 0.842135 111.782 26)" fill="#648353"/>
<ellipse cx="145.202" cy="33.7086" rx="7.20156" ry="6.35531" fill="#5A734D"/>
<ellipse cx="7.36137" cy="6.2566" rx="7.36137" ry="6.2566" transform="matrix(0.998986 0.0450193 0.066999 0.997753 156.454 23.7327)" fill="#5A734D"/>
<ellipse cx="152.403" cy="25.5081" rx="7.20156" ry="10.8655" fill="#5A734D"/>
<ellipse cx="155.962" cy="32.5126" rx="7.39621" ry="10.0377" fill="#5A734D"/>
<ellipse cx="159.605" cy="20.5879" rx="7.20156" ry="5.94529" fill="#5A734D"/>
<ellipse cx="146.258" cy="23.6965" rx="7.20156" ry="5.94529" fill="#5A734D"/>
<ellipse cx="8.30377" cy="9.07217" rx="8.30377" ry="9.07217" transform="matrix(0.682877 0.730533 -0.497134 0.867674 153.016 0)" fill="#5A734D"/>
</svg>
