<svg width="1019" height="1391" viewBox="0 0 1019 1391" fill="none" xmlns="http://www.w3.org/2000/svg">
<g clip-path="url(#clip0_377_324)">
<path d="M183.568 908H937.082L1019 1064H101L183.568 908Z" fill="#BA4A4A"/>
<path d="M362.5 849L545.664 1053.75H179.336L362.5 849Z" fill="#EFD8D4"/>
<rect y="1053" width="545" height="338" fill="#EFD8D4"/>
<path d="M545 1053L597 1063V1366L545 1391V1053Z" fill="#DABAB4"/>
<rect x="597" y="1064" width="403" height="302" fill="#EFD8D4"/>
<path d="M748 356H965.5L990 1366H725L748 356Z" fill="#EECCC6"/>
<path d="M856.5 0C856.5 0 870.412 78.7308 899.57 178C928.727 277.269 970 356 970 356H743C743 356 787.556 256.303 812.502 178C837.448 99.6971 856.5 0 856.5 0Z" fill="#BA4A4A"/>
<path d="M792 444.073C792 434.644 799.644 427 809.073 427C818.974 427 827 435.026 827 444.927V571H792V444.073Z" fill="#BA4A4A"/>
<path d="M838 444.073C838 434.644 845.644 427 855.073 427C864.974 427 873 435.026 873 444.927V571H838V444.073Z" fill="#BA4A4A"/>
<path d="M884 444.073C884 434.644 891.644 427 901.073 427C910.974 427 919 435.026 919 444.927V571H884V444.073Z" fill="#BA4A4A"/>
<path d="M343 974.073C343 964.644 350.644 957 360.073 957C369.974 957 378 965.026 378 974.927V1043H343V974.073Z" fill="#BA4A4A"/>
<path d="M300 987.073C300 977.644 307.644 970 317.073 970C326.974 970 335 978.026 335 987.927V1043H300V987.073Z" fill="#BA4A4A"/>
<path d="M386 987.073C386 977.644 393.644 970 403.073 970C412.974 970 421 978.026 421 987.927V1043H386V987.073Z" fill="#BA4A4A"/>
<rect x="856" y="760" width="4" height="25" fill="#BA4A4A"/>
<rect x="856" y="853" width="4" height="35" fill="#BA4A4A"/>
<rect x="830" y="956" width="4" height="35" fill="#BA4A4A"/>
<rect x="856" y="956" width="4" height="35" fill="#BA4A4A"/>
<rect x="882" y="956" width="4" height="35" fill="#BA4A4A"/>
<rect x="856" y="1059" width="4" height="35" fill="#BA4A4A"/>
<rect x="856" y="1162" width="4" height="35" fill="#BA4A4A"/>
<rect x="817" y="1265" width="4" height="35" fill="#BA4A4A"/>
<rect x="843" y="1265" width="4" height="35" fill="#BA4A4A"/>
<rect x="869" y="1265" width="4" height="35" fill="#BA4A4A"/>
<rect x="895" y="1265" width="4" height="35" fill="#BA4A4A"/>
<rect x="359" y="896" width="4" height="31" fill="#BA4A4A"/>
<rect x="179" y="1052" width="366" height="1" fill="#BA4A4A"/>
<rect x="43" y="1095" width="32" height="79" fill="#BA4A4A"/>
<rect x="43" y="1269" width="32" height="79" fill="#BA4A4A"/>
<rect x="645" y="1088" width="32" height="79" fill="#BA4A4A"/>
<rect x="645" y="1262" width="32" height="79" fill="#BA4A4A"/>
<rect x="111" y="1095" width="32" height="79" fill="#BA4A4A"/>
<rect x="111" y="1269" width="32" height="79" fill="#BA4A4A"/>
<rect x="289" y="1107" width="28" height="84" fill="#BA4A4A"/>
<path d="M336 1132.5C336 1118.42 347.417 1107 361.5 1107C375.583 1107 387 1118.42 387 1132.5V1134H336V1132.5Z" fill="#BA4A4A"/>
<rect x="336" y="1139" width="51" height="52" fill="#BA4A4A"/>
<rect x="406" y="1107" width="28" height="84" fill="#BA4A4A"/>
<rect x="289" y="1263" width="28" height="84" fill="#BA4A4A"/>
<path d="M336 1288.5C336 1274.42 347.417 1263 361.5 1263C375.583 1263 387 1274.42 387 1288.5V1290H336V1288.5Z" fill="#BA4A4A"/>
<rect x="336" y="1295" width="51" height="52" fill="#BA4A4A"/>
<rect x="406" y="1263" width="28" height="84" fill="#BA4A4A"/>
<rect x="179" y="1053" width="1" height="338" fill="#BA4A4A"/>
<circle cx="858" cy="659" r="56.5" stroke="#BA4A4A" stroke-width="5"/>
<path d="M858 622V603.5" stroke="#BA4A4A"/>
<path d="M859 716.5V698" stroke="#BA4A4A"/>
<path d="M915.5 658H897" stroke="#BA4A4A"/>
<path d="M877 627.021L886.25 611" stroke="#BA4A4A"/>
<path d="M830 707.021L839.25 691" stroke="#BA4A4A"/>
<path d="M891 640.25L907.021 631" stroke="#BA4A4A"/>
<path d="M810 688.25L826.021 679" stroke="#BA4A4A"/>
<path d="M821.5 660H803" stroke="#BA4A4A"/>
<path d="M839.25 627.021L830 611" stroke="#BA4A4A"/>
<path d="M887.25 708.021L878 692" stroke="#BA4A4A"/>
<path d="M826.021 640.25L810 631" stroke="#BA4A4A"/>
<path d="M906.021 687.25L890 678" stroke="#BA4A4A"/>
<circle cx="858.5" cy="659.5" r="37.5" stroke="#BA4A4A" stroke-width="2"/>
<circle cx="858.5" cy="659.5" r="18.5" stroke="#BA4A4A" stroke-width="2"/>
<path d="M891 640.634C883.345 643.5 877.896 650.883 877.896 659.538C877.896 668.134 883.271 675.474 890.843 678.382" stroke="#BA4A4A" stroke-width="0.5"/>
<path d="M826 641C833.655 643.866 839.104 651.249 839.104 659.904C839.104 668.5 833.729 675.84 826.157 678.748" stroke="#BA4A4A" stroke-width="0.5"/>
<path d="M839.5 692.104C842.366 684.449 849.749 679 858.404 679C867 679 874.34 684.375 877.248 691.947" stroke="#BA4A4A" stroke-width="0.5"/>
<path d="M839.5 627C842.366 634.655 849.749 640.104 858.404 640.104C867 640.104 874.34 634.729 877.248 627.157" stroke="#BA4A4A" stroke-width="0.5"/>
<circle cx="830.697" cy="659.607" r="8.47792" transform="rotate(45 830.697 659.607)" stroke="#BA4A4A"/>
<circle cx="858.197" cy="631.697" r="8.47792" transform="rotate(45 858.197 631.697)" stroke="#BA4A4A"/>
<circle cx="886.697" cy="658.697" r="8.47792" transform="rotate(45 886.697 658.697)" stroke="#BA4A4A"/>
<circle cx="858.197" cy="687.697" r="8.47792" transform="rotate(45 858.197 687.697)" stroke="#BA4A4A"/>
<rect x="877" y="627" width="1" height="64" fill="#BA4A4A"/>
<rect x="891" y="640" width="1" height="64" transform="rotate(90 891 640)" fill="#BA4A4A"/>
<rect x="890" y="678" width="1" height="64" transform="rotate(90 890 678)" fill="#BA4A4A"/>
<rect x="839" y="627" width="1" height="64" fill="#BA4A4A"/>
<circle cx="858.5" cy="659.5" r="3.5" fill="#BA4A4A"/>
<ellipse cx="10.4593" cy="1.93896" rx="10.4593" ry="1.93896" transform="matrix(0.958306 -0.285743 0.402766 0.915303 858.494 656.8)" fill="#BA4A4A"/>
<ellipse cx="10.4593" cy="1.10008" rx="10.4593" ry="1.10008" transform="matrix(0.958306 -0.285743 0.402766 0.915303 875.788 652.799)" fill="#BA4A4A"/>
<ellipse cx="10.4593" cy="1.18725" rx="10.4593" ry="1.18725" transform="matrix(0.76556 0.643365 -0.543105 0.839665 848.821 650)" fill="#BA4A4A"/>
<ellipse cx="10.4593" cy="1.10008" rx="10.4593" ry="1.10008" transform="matrix(0.76556 0.643365 -0.543105 0.839665 862.487 660.983)" fill="#BA4A4A"/>
</g>
<defs>
<clipPath id="clip0_377_324">
<rect width="1019" height="1391" fill="white"/>
</clipPath>
</defs>
</svg>
