<svg width="22" height="22" viewBox="0 0 22 22" fill="none" xmlns="http://www.w3.org/2000/svg">
<path d="M22 3.25906C22 3.47515 21.9142 3.68239 21.7613 3.83518C21.6085 3.98798 21.4013 4.07382 21.1852 4.07382H19.5556V5.70335C19.5556 5.91944 19.4697 6.12668 19.3169 6.27948C19.1641 6.43228 18.9568 6.51812 18.7407 6.51812C18.5246 6.51812 18.3174 6.43228 18.1646 6.27948C18.0118 6.12668 17.9259 5.91944 17.9259 5.70335V4.07382H16.2963C16.0802 4.07382 15.8729 3.98798 15.7201 3.83518C15.5673 3.68239 15.4815 3.47515 15.4815 3.25906C15.4815 3.04297 15.5673 2.83573 15.7201 2.68293C15.8729 2.53014 16.0802 2.44429 16.2963 2.44429H17.9259V0.814765C17.9259 0.598676 18.0118 0.391437 18.1646 0.238639C18.3174 0.085841 18.5246 0 18.7407 0C18.9568 0 19.1641 0.085841 19.3169 0.238639C19.4697 0.391437 19.5556 0.598676 19.5556 0.814765V2.44429H21.1852C21.4013 2.44429 21.6085 2.53014 21.7613 2.68293C21.9142 2.83573 22 3.04297 22 3.25906ZM20.3704 9.77718V15.0731C20.3707 15.8906 20.0978 16.6847 19.595 17.3293C19.0923 17.9739 18.3886 18.432 17.5956 18.6308C16.8027 18.8297 15.966 18.7578 15.2186 18.4267C14.4712 18.0957 13.8558 17.5243 13.4703 16.8035C13.0848 16.0826 12.9513 15.2536 13.0909 14.4482C13.2306 13.6428 13.6354 12.9071 14.241 12.3581C14.8467 11.8091 15.6185 11.4782 16.4337 11.418C17.249 11.3578 18.061 11.5718 18.7407 12.0259V9.77718C18.7407 9.56109 18.8266 9.35385 18.9794 9.20105C19.1322 9.04825 19.3395 8.96241 19.5556 8.96241C19.7717 8.96241 19.9789 9.04825 20.1317 9.20105C20.2845 9.35385 20.3704 9.56109 20.3704 9.77718ZM18.7407 15.0731C18.7407 14.6703 18.6213 14.2765 18.3974 13.9415C18.1736 13.6065 17.8555 13.3455 17.4832 13.1913C17.111 13.0371 16.7014 12.9968 16.3063 13.0754C15.9112 13.154 15.5482 13.348 15.2633 13.6328C14.9784 13.9177 14.7844 14.2806 14.7058 14.6758C14.6272 15.0709 14.6676 15.4804 14.8217 15.8526C14.9759 16.2248 15.237 16.543 15.572 16.7668C15.907 16.9906 16.3008 17.1101 16.7037 17.1101C17.244 17.1101 17.7621 16.8955 18.1441 16.5135C18.5261 16.1315 18.7407 15.6134 18.7407 15.0731ZM7.33334 9.59895V18.3322C7.33364 19.1496 7.06074 19.9437 6.55801 20.5883C6.05527 21.2329 5.35153 21.691 4.5586 21.8899C3.76566 22.0887 2.92902 22.0169 2.18158 21.6858C1.43415 21.3547 0.818795 20.7834 0.433294 20.0625C0.0477934 19.3417 -0.0857456 18.5127 0.0538937 17.7073C0.193533 16.9018 0.598341 16.1662 1.204 15.6172C1.80966 15.0681 2.58144 14.7373 3.39671 14.6771C4.21198 14.6169 5.02398 14.8309 5.70371 15.285V4.07382C5.70373 3.89213 5.76449 3.71567 5.87633 3.57247C5.98816 3.42927 6.14465 3.32756 6.32093 3.2835L12.0246 1.85766C12.2328 1.8094 12.4516 1.84484 12.6339 1.95634C12.8161 2.06783 12.9473 2.24647 12.9992 2.45376C13.051 2.66105 13.0193 2.88041 12.9109 3.06456C12.8026 3.24872 12.6262 3.38294 12.4198 3.43831L7.33334 4.71036V7.91849L14.4691 6.13518C14.6772 6.08692 14.896 6.12235 15.0783 6.23385C15.2606 6.34535 15.3918 6.52399 15.4436 6.73128C15.4954 6.93857 15.4637 7.15792 15.3554 7.34208C15.247 7.52623 15.0706 7.66045 14.8643 7.71582L7.33334 9.59895ZM5.70371 18.3322C5.70371 17.9293 5.58424 17.5355 5.3604 17.2006C5.13657 16.8656 4.81843 16.6045 4.44621 16.4503C4.07399 16.2962 3.66441 16.2558 3.26926 16.3344C2.87412 16.413 2.51115 16.607 2.22627 16.8919C1.94138 17.1768 1.74737 17.5397 1.66878 17.9348C1.59018 18.3299 1.63052 18.7395 1.78469 19.1117C1.93887 19.4839 2.19997 19.802 2.53495 20.0258C2.86994 20.2497 3.26378 20.3691 3.66667 20.3691C4.20693 20.3691 4.72505 20.1545 5.10707 19.7725C5.48909 19.3905 5.70371 18.8724 5.70371 18.3322Z" fill="#757575"/>
</svg>
