<svg width="118" height="118" viewBox="0 0 118 118" fill="none" xmlns="http://www.w3.org/2000/svg">
<g clip-path="url(#clip0_743_964)">
<path d="M59 0C91.5848 0 118 26.4152 118 59C118 91.5848 91.5848 118 59 118C26.4152 118 0 91.5848 0 59C0 26.4152 26.4152 2.62181e-07 59 0ZM32.2239 105.911C40.1248 110.451 49.272 113.042 59 113.042C59.1641 113.042 59.328 113.04 59.4917 113.038V97.9996H60.509V113.02C69.8794 112.76 78.6712 110.099 86.2787 105.618L78.865 92.7782C73.176 96.0958 66.5613 97.9995 59.5007 97.9996L58.5062 97.987C51.7174 97.8149 45.3654 95.8847 39.888 92.6358L32.2239 105.911ZM13.2112 87.5491C17.7549 94.8528 23.9885 100.982 31.3527 105.399L39.0258 92.11C34.0483 88.9783 29.8398 84.738 26.7433 79.7364L13.2112 87.5491ZM92.4527 79.4139C89.2899 84.6363 84.9214 89.0454 79.7323 92.2573L87.145 105.095C94.5406 100.551 100.766 94.2669 105.245 86.8005L92.4527 79.4139ZM63.0332 79.5776C63.9419 80.0069 64.7941 80.5963 65.5455 81.3477C69.0516 84.8537 69.0514 90.5387 65.5455 94.0448C64.7722 94.8181 63.8921 95.4196 62.9537 95.8518C68.2631 95.3515 73.2465 93.7121 77.6531 91.1746C75.0382 85.2178 69.5996 80.7866 63.0332 79.5776ZM55.073 79.7199C48.8547 81.0989 43.7288 85.3856 41.1933 91.0836C45.4232 93.5471 50.1898 95.181 55.2708 95.7695C54.3963 95.3441 53.5751 94.771 52.8488 94.0448C49.3429 90.5387 49.3428 84.8538 52.8488 81.3477C53.5204 80.6763 54.2724 80.1341 55.073 79.7199ZM64.8352 82.0585C61.7213 78.9448 56.6731 78.9449 53.5592 82.0585C50.4452 85.1724 50.4453 90.221 53.5592 93.335C56.6731 96.4484 61.7214 96.4487 64.8352 93.335C67.949 90.2211 67.9489 85.1724 64.8352 82.0585ZM62.6041 79.0004C69.4762 80.0808 75.205 84.587 77.9997 90.7088V79.0004H62.6041ZM28.6645 79.0004C31.5572 83.5764 35.4364 87.4609 40.0003 90.3583V79.0004H28.6645ZM79.0001 90.3583C83.5638 87.461 87.4423 83.5762 90.3348 79.0004H79.0001V90.3583ZM40.9996 90.3021C43.86 84.3866 49.4884 80.0554 56.2095 79.0004H40.9996V90.3021ZM5.10707 60.4961C5.36604 70.0727 8.10367 79.0075 12.6917 86.696L26.2288 78.8803C23.0624 73.4562 21.1833 67.1889 21.0134 60.4961H5.10707ZM92.8839 40.3146C96.137 45.963 98.0008 52.5134 98.0008 59.4997L97.9879 60.4932C97.8218 67.0537 96.0116 73.2053 92.9584 78.555L105.75 85.9406C110.304 78.0215 112.914 68.8278 112.914 59C112.914 58.8316 112.913 58.6635 112.911 58.4955H97.9999V57.5039H112.892C112.649 48.4943 110.211 40.0531 106.103 32.683L92.8839 40.3146ZM23.1422 62.3282C23.5771 68.0215 25.3157 73.3428 28.0546 78.0001H28.2811C33.8307 75.4312 37.999 70.3835 39.3654 64.2737C39.0008 64.8716 38.5623 65.4375 38.0452 65.9548C34.5392 69.4608 28.8547 69.4608 25.3485 65.9548C24.2969 64.903 23.563 63.6544 23.1422 62.3282ZM40.9996 78.0001H53.3197C47.5211 76.0638 42.9354 71.4777 40.9996 65.6788V78.0001ZM77.9997 65.6768C76.0638 71.4775 71.4774 76.0644 65.6767 78.0001H77.9997V65.6768ZM79.0001 78.0001H90.3209C84.522 75.2471 80.2285 69.8456 79.0001 63.3614V78.0001ZM40.0003 63.7256C38.8245 69.9349 34.8376 75.151 29.4096 78.0001H40.0003V63.7256ZM79.2812 61.8208C80.0985 68.9899 84.7174 75 91.0679 77.7919C93.7143 73.223 95.3994 68.0243 95.8452 62.4686C95.4136 63.4013 94.8141 64.2755 94.0452 65.0445C90.5391 68.5506 84.8546 68.5506 81.3485 65.0445C80.4041 64.1 79.7168 62.9963 79.2812 61.8208ZM59.5007 41.9831C49.9035 41.9831 42.0349 49.7776 42.0348 59.4997C42.0348 69.222 49.9034 77.0162 59.5007 77.0162C69.0976 77.0159 76.9656 69.2218 76.9656 59.4997C76.9655 49.7778 69.0975 41.9834 59.5007 41.9831ZM37.3349 53.9684C34.221 50.8546 29.1728 50.8546 26.0589 53.9684C22.945 57.0824 22.9451 62.131 26.0589 65.245C29.1728 68.3584 34.2211 68.3585 37.3349 65.245C40.4487 62.1311 40.4487 57.0824 37.3349 53.9684ZM93.3348 53.0582C90.221 49.9445 85.1727 49.9445 82.0588 53.0582C78.9448 56.1721 78.9449 61.2207 82.0588 64.3347C85.1727 67.4484 90.221 67.4484 93.3348 64.3347C96.4487 61.2207 96.4488 56.1721 93.3348 53.0582ZM12.1463 32.2375C7.65639 40.1161 5.08621 49.246 5.08621 59C5.08621 59.1684 5.08766 59.3365 5.08919 59.5045H21.0004V59.4997C21.0005 52.51 22.8624 45.9552 26.1185 40.3049L12.1463 32.2375ZM27.7307 41.5619C25.1377 46.1564 23.5093 51.3716 23.1243 56.9364C23.5422 55.5907 24.283 54.3232 25.3485 53.2577C28.8547 49.752 34.5392 49.7519 38.0452 53.2577C38.4534 53.6659 38.8119 54.1055 39.125 54.5659C37.4976 48.6961 33.2537 43.9171 27.7307 41.5619ZM27.9791 41.1281C34.132 43.7695 38.7242 49.3412 40.0003 56.0852V41.0002H28.0546C28.0295 41.0429 28.004 41.0852 27.9791 41.1281ZM79.0001 55.7125C80.2403 49.17 84.6009 43.729 90.4799 41.0002H79.0001V55.7125ZM91.1037 41.2694C85.6082 43.6726 81.4044 48.483 79.8286 54.3722C80.2279 53.6466 80.7334 52.9635 81.3485 52.3484C84.8546 48.8425 90.5391 48.8425 94.0452 52.3484C94.6888 52.992 95.2134 53.7094 95.6207 54.473C94.9671 49.7151 93.4011 45.2538 91.1037 41.2694ZM40.9996 53.3215C42.9355 47.5224 47.5217 42.9364 53.3207 41.0002H40.9996V53.3215ZM65.6796 41.0002C71.4783 42.9362 76.0637 47.522 77.9997 53.3206V41.0002H65.6796ZM40.9996 39.9999H55.6145C49.1564 38.789 43.7749 34.5406 40.9996 28.7998V39.9999ZM77.9997 28.3922C75.2858 34.3386 69.8046 38.7602 63.1951 39.9999H77.9997V28.3922ZM79.0001 39.9999H90.3358C87.4431 35.4237 83.5641 31.5385 79.0001 28.6411V39.9999ZM40.0003 28.6411C35.4362 31.5386 31.5572 35.4237 28.6645 39.9999H40.0003V28.6411ZM64.8352 26.0585C61.7213 22.9448 56.6731 22.9449 53.5592 26.0585C50.4452 29.1724 50.4453 34.221 53.5592 37.335C56.6731 40.4484 61.7214 40.4486 64.8352 37.335C67.949 34.2211 67.9489 29.1724 64.8352 26.0585ZM79.0001 26.2986C84.4681 29.517 89.0689 34.0478 92.3743 39.4576L105.609 31.8163C101.047 23.9758 94.574 17.3997 86.841 12.7174L79.0001 26.2986ZM31.3438 12.6061C23.6746 17.208 17.2319 23.667 12.648 31.3757L26.6281 39.4469C29.82 34.2257 34.2213 29.8245 39.4419 26.6317L31.3438 12.6061ZM61.5888 23.044C63.0375 23.443 64.4069 24.2091 65.5455 25.3477C69.0516 28.8537 69.0514 34.5387 65.5455 38.0448C65.0378 38.5525 64.4822 38.9836 63.8965 39.3443C70.104 37.9129 75.2034 33.5814 77.6898 27.847C72.8987 25.0805 67.4243 23.3745 61.5888 23.044ZM56.6139 23.0963C51.0151 23.5359 45.7669 25.2456 41.1576 27.937C43.5644 33.413 48.3592 37.5952 54.2217 39.1709C53.7371 38.8476 53.2766 38.4725 52.8488 38.0448C49.3429 34.5387 49.3428 28.8538 52.8488 25.3477C53.9374 24.2593 55.2358 23.5088 56.6139 23.0963ZM58.4914 4.96089C48.9499 5.04956 39.9799 7.62929 32.2149 12.0928L40.3111 26.1156C45.6876 23.0186 51.8823 21.1824 58.4914 21.0123V4.96089ZM59.5086 20.9997L60.4941 21.0123C66.878 21.1742 72.8745 22.8924 78.122 25.798L85.9717 12.2023C78.1638 7.6722 69.127 5.05027 59.5086 4.96089V20.9997Z" fill="#E06666"/>
<path d="M86.8108 49.8111C92.3463 48.1606 97.0323 47.2729 97.2773 47.8289C97.5219 48.385 93.2325 50.1737 87.6969 51.8243C84.3977 52.8081 81.3999 53.5188 79.4646 53.8163C78.0028 54.8736 74.869 56.2304 71.0793 57.3604C67.9166 58.3034 64.9815 58.8834 62.9662 59.026C62.9873 59.1812 63 59.3396 63 59.5005C63 60.0706 62.8624 60.6082 62.6206 61.0838C62.9227 61.3862 63.2028 61.6751 63.459 61.9476C64.7377 62.4491 67.9313 64.7176 71.4946 67.7122C75.9165 71.4283 79.2338 74.8546 78.9044 75.365C78.5744 75.8752 74.7218 73.2761 70.2995 69.5597C68.0675 67.684 66.1174 65.8817 64.7752 64.4914C64.1549 64.3218 62.9249 63.5889 61.349 62.4714C60.8124 62.806 60.1792 63.0001 59.5003 63.0001C57.5673 63.0001 55.9997 61.4333 55.9996 59.5005C55.9996 59.1205 56.0614 58.7546 56.1734 58.412C51.937 54.815 48.8306 51.5316 49.1768 50.9964C49.5289 50.4563 53.2828 52.9329 57.6148 56.5519C58.1591 56.2031 58.8059 55.9999 59.5003 55.9999C60.4 56 61.2207 56.3396 61.8408 56.8976C63.4834 55.925 66.2569 54.7835 69.5168 53.8114C74.1714 52.4235 78.3325 51.8184 79.7954 52.2436C81.5321 51.5157 84.0121 50.6456 86.8108 49.8111Z" fill="#E06666"/>
</g>
<defs>
<clipPath id="clip0_743_964">
<rect width="118" height="118" fill="white"/>
</clipPath>
</defs>
</svg>
